<?xml version="1.0" standalone="no"?><!DOCTYPE svg PUBLIC "-//W3C//DTD SVG 1.1//EN" "http://www.w3.org/Graphics/SVG/1.1/DTD/svg11.dtd"><svg t="1540870526631" class="icon" style="" viewBox="0 0 1024 1024" version="1.1" xmlns="http://www.w3.org/2000/svg" p-id="1979" xmlns:xlink="http://www.w3.org/1999/xlink" width="64" height="64"><defs><style type="text/css"></style></defs><path d="M860.16 409.6H163.84a122.88 122.88 0 0 0-122.88 122.88v327.68a122.88 122.88 0 0 0 122.88 122.88h696.32a122.88 122.88 0 0 0 122.88-122.88V532.48a122.88 122.88 0 0 0-122.88-122.88z m81.92 450.56a81.92 81.92 0 0 1-81.92 81.92H163.84a81.92 81.92 0 0 1-81.92-81.92V532.48a81.92 81.92 0 0 1 81.92-81.92h696.32a81.92 81.92 0 0 1 81.92 81.92zM822.4768 288.3584a303.9232 303.9232 0 0 1 11.264 40.96l37.4784-19.456a345.2928 345.2928 0 0 0-12.0832-40.96z" p-id="1980"></path><path d="M806.5024 250.6752l36.2496-18.8416A348.16 348.16 0 0 0 532.48 40.96h-40.96A346.9312 346.9312 0 0 0 149.2992 451.9936 81.92 81.92 0 0 1 163.84 450.56h26.624A307.2 307.2 0 0 1 491.52 81.92h40.96a307.2 307.2 0 0 1 274.0224 168.7552zM839.68 411.0336a309.4528 309.4528 0 0 1-6.144 39.5264H860.16a81.92 81.92 0 0 1 14.5408 1.4336 368.64 368.64 0 0 0 4.9152-40.96z" p-id="1981"></path></svg>