<?xml version="1.0" standalone="no"?><!DOCTYPE svg PUBLIC "-//W3C//DTD SVG 1.1//EN" "http://www.w3.org/Graphics/SVG/1.1/DTD/svg11.dtd"><svg t="1544419693317" class="icon" style="" viewBox="0 0 1024 1024" version="1.1" xmlns="http://www.w3.org/2000/svg" p-id="1840" xmlns:xlink="http://www.w3.org/1999/xlink" width="64" height="64"><defs><style type="text/css"></style></defs><path d="M39.152941 69.270588v903.529412h963.764706v-903.529412h-963.764706z m60.235294 843.294118v-123.482353l162.635294-168.658824 105.411765 117.458824-171.670588 177.694118H99.388235z m843.294118 0H277.082353l433.694118-439.717647 228.894117 219.858823v219.858824z m-231.905882-530.070588l-304.188236 301.17647-144.564706-150.588235-162.635294 168.658823v-572.235294h843.294118v475.858824l-231.905882-222.870588z" fill="#2c2c2c" p-id="1841"></path><path d="M262.023529 201.788235c-51.2 0-90.352941 39.152941-90.352941 90.352941s39.152941 90.352941 90.352941 90.352942 90.352941-39.152941 90.352942-90.352942-39.152941-90.352941-90.352942-90.352941z m0 120.470589c-18.070588 0-30.117647-12.047059-30.117647-30.117648s12.047059-30.117647 30.117647-30.117647 30.117647 12.047059 30.117647 30.117647-12.047059 30.117647-30.117647 30.117648z" fill="#2c2c2c" p-id="1842"></path></svg>